<?xml version="1.0" standalone="no"?>
<!DOCTYPE svg PUBLIC "-//W3C//DTD SVG 20010904//EN"
 "http://www.w3.org/TR/2001/REC-SVG-20010904/DTD/svg10.dtd">
<svg version="1.0" xmlns="http://www.w3.org/2000/svg"
 width="990.000000pt" height="990.000000pt" viewBox="0 0 990.000000 990.000000"
 preserveAspectRatio="xMidYMid meet">
<metadata>
Created by potrace 1.14, written by Peter Selinger 2001-2017
</metadata>
<g transform="translate(0.000000,990.000000) scale(0.100000,-0.100000)"
fill="#000000" stroke="none">
<path d="M3923 8884 l-1023 -1016 0 396 0 396 -830 0 -830 0 0 -1219 0 -1219
-595 -589 c-327 -323 -595 -593 -595 -598 0 -6 65 -75 145 -155 l145 -144 567
565 c1379 1372 4036 4004 4043 4004 7 0 2664 -2632 4038 -3999 l572 -570 145
144 c80 80 144 150 143 156 -3 10 -4884 4857 -4897 4861 -3 1 -466 -455 -1028
-1013z m-1443 -1037 l0 -392 -410 -410 -410 -410 0 803 0 802 410 0 410 0 0
-393z"/>
<path d="M3097 6602 l-1857 -1857 0 -2373 0 -2372 1445 0 1445 0 0 1445 0
1445 820 0 820 0 0 -1445 0 -1445 1450 0 1450 0 0 2373 0 2372 -1858 1858
-1857 1857 -1858 -1858z m3500 -424 l1643 -1643 0 -2057 0 -2058 -1025 0
-1025 0 0 1445 0 1445 -1240 0 -1240 0 0 -1445 0 -1445 -1025 0 -1025 0 0
2057 0 2058 1642 1642 c904 904 1645 1643 1648 1643 3 0 744 -739 1647 -1642z"/>
</g>
</svg>
